Coordinates											
version=1											
nRows=57											
nColumns=12											
inDegrees=yes											
											
"Units are S.I. units (second, meters, Newtons, ...)"											
"If the header above contains a line with 'inDegrees', this indicates whether rotational values are in degrees (yes) or radians (no)."											
											
endheader											
time	clav_prot	clav_elev	scapula_abduction	scapula_elevation	scapula_upward_rot	scapula_winging	plane_elv	shoulder_elv	axial_rot	elbow_flexion	pro_sup
2.31	-17.93350434	-0.72210093	-2.47917924	-2.2584743	17.6877117	2.70593928	-10.26482568	14.14708613	26.32598193	0	34.32
2.32	-17.60934065	-1.57578735	-2.048884	-2.73619297	17.08719859	3.00474456	-13.35362191	14.34787706	28.5684913	0	34.32
2.33	-17.3316187	-1.62383023	-1.46999025	-2.78889015	17.20630697	2.93098858	-15.53278626	13.80938259	38.10569039	0	34.32
2.34	-17.34882544	-1.76832549	-1.52891485	-2.87210483	17.10001844	2.99806913	-15.62137084	14.1214981	38.18404275	0	34.32
2.35	-17.31925342	-2.29706271	-1.56388315	-3.17998088	16.74062102	3.2207054	-17.03990156	13.96560139	42.42085321	0	34.32
2.36	-17.3189161	-2.47521289	-1.51515084	-3.31597848	16.74565543	3.26655068	-17.13812564	14.22115229	42.43216295	0	34.32
2.37	-17.37674581	-3.01572871	-1.6746583	-3.650031	16.43545728	3.50688446	-17.54584338	14.60440865	41.10979239	0	34.32
2.38	-17.70336401	-3.10105193	-2.29809653	-3.70279603	16.32363946	3.62349029	-17.54357976	14.76559769	40.04903305	0	34.32
2.39	-17.6576507	-3.21968885	-2.34435463	-3.72629948	16.06904002	3.71425074	-16.7508324	15.00998891	38.54402112	0	34.32
2.4	-17.68658176	-3.12504446	-2.57658845	-3.59026882	15.8095569	3.75984979	-15.06191328	15.52778477	34.0709366	0	34.32
2.41	-17.67680289	-3.25409957	-2.71906498	-3.60764065	15.49446689	3.87610121	-14.76702318	15.71300564	33.50914084	0	34.32
2.42	-17.6698913	-3.17345181	-2.62413193	-3.58907046	15.66356632	3.80851079	-16.05537602	14.95751585	41.48597232	0	34.32
2.43	-17.66232919	-3.19667589	-2.61707274	-3.6013235	15.6438169	3.81844577	-16.05846179	14.94087892	41.48634382	0	34.32
2.44	-17.75458838	-3.41642892	-2.94861402	-3.6790193	15.27564294	3.99376008	-15.20096726	15.35351337	38.68802008	0	34.32
2.45	-17.79065354	-3.5626765	-3.0689822	-3.7528288	15.12231503	4.08242272	-14.78533519	15.61882475	35.67115124	0	34.32
2.46	-17.62230048	-3.63226754	-2.88354974	-3.74284018	14.90994061	4.12526204	-14.91398532	15.79375342	35.28176308	0	34.32
2.47	-17.41625777	-3.81936369	-2.59872035	-3.82243512	14.70570733	4.19221525	-15.1226602	15.92850834	35.47605359	0	34.32
2.48	-17.34221926	-3.93923276	-2.5227317	-3.87442635	14.56743083	4.24833777	-15.4512198	16.01648839	35.77719382	0	34.32
2.49	-17.31444543	-4.09884669	-2.53349739	-3.95263003	14.40446901	4.33223623	-15.98686243	15.99065159	36.56728021	0	34.32
2.5	-17.30317516	-4.22281748	-2.54171458	-4.02189379	14.3088436	4.3919904	-16.23052105	15.89534707	37.11290373	0	34.32
2.51	-17.31428588	-4.1594501	-2.49115888	-4.01104566	14.45180853	4.33869625	-17.35190184	15.13909839	45.02544126	0	34.32
2.52	-17.15384383	-4.3358814	-2.3267462	-4.06866805	14.18493024	4.42720403	-16.78386166	15.51692863	42.96556094	0	34.32
2.53	-17.04821707	-4.50193092	-2.10794582	-4.18817501	14.17750595	4.45849287	-17.37415634	15.4440782	42.7612676	0	34.32
2.54	-17.09226979	-4.28644583	-2.30801633	-3.99349042	14.052349	4.43275092	-14.65971815	16.34812002	34.11172259	0	34.32
2.55	-17.44500133	-4.33348614	-2.72697769	-4.13024803	14.37387527	4.43846345	-16.477611	15.39030153	37.87461868	0	34.32
2.56	-17.35479478	-4.42438011	-2.72730028	-4.11649109	14.0699597	4.52519761	-15.82665451	15.57617218	37.03627931	0	34.32
2.57	-17.35564574	-4.4345347	-2.77251058	-4.10410041	13.99195767	4.54826165	-16.26084431	15.47503221	37.99029231	0	34.32
2.58	-17.35491882	-4.4049364	-2.7799836	-4.080452	13.98829092	4.53979155	-16.22919303	15.4165604	38.0223887	0	34.32
2.59	-17.52497407	-4.22348537	-3.09140459	-3.96324903	14.03748154	4.50560347	-16.15928525	15.27084363	37.8922905	0	34.32
2.6	-17.59233322	-4.27859885	-3.31787882	-3.95533375	13.83199742	4.58789692	-16.18131213	15.15014888	38.50779584	0	34.32
2.61	-17.65191247	-4.40027105	-3.51059024	-3.99962415	13.63366661	4.68710385	-16.76821489	14.95902366	39.73374815	0	34.32
2.62	-17.68143579	-4.550337	-3.6434078	-4.06419398	13.4358717	4.78931264	-17.69395404	14.85009726	41.15404225	0	34.32
2.63	-17.71213706	-4.64114375	-3.75058928	-4.10195093	13.30867292	4.85572953	-18.40642573	14.9031976	41.92385627	0	34.32
2.64	-17.81892279	-4.58834735	-3.95104877	-4.06665608	13.30701297	4.85985647	-18.75517666	15.00359969	41.1928423	0	34.32
2.65	-17.83277709	-4.58460702	-3.95679316	-4.07304423	13.34001168	4.85310371	-18.73623149	14.99849738	41.20727189	0	34.32
2.66	-18.06153446	-4.52492037	-4.19818488	-4.1170047	13.63762509	4.80184643	-18.54070513	14.74681962	40.66346408	0	34.32
2.67	-18.0150426	-4.68805971	-4.27067937	-4.15357586	13.30916544	4.92745403	-17.26372111	15.21076182	37.62449054	0	34.32
2.68	-18.19725499	-4.56073079	-4.37917029	-4.17309385	13.72078441	4.81655738	-19.03103581	14.13507317	47.40513175	0	34.32
2.69	-18.20426081	-4.68497638	-4.49023076	-4.21177085	13.50299387	4.91197024	-18.27877472	14.58675628	44.54583393	0	34.32
2.7	-18.10040578	-4.75957272	-4.36689713	-4.22948122	13.37300236	4.94982215	-18.29670988	15.04429461	42.93774498	0	34.32
2.71	-18.05095186	-4.85733521	-4.36074385	-4.2555791	13.19633505	5.01643963	-18.00552455	15.21484036	41.59239952	0	34.32
2.72	-18.06494652	-4.83339524	-4.36835631	-4.24795799	13.23461888	5.00162747	-18.02373883	15.16787147	41.60718823	0	34.32
2.73	-18.15267979	-4.86151261	-4.52113908	-4.2716736	13.22534648	5.02891596	-18.01582987	15.34706523	39.70342446	0	34.32
2.74	-18.04588777	-4.22256831	-4.05900883	-3.965852	13.94786626	4.62672752	-20.19543118	14.14054452	49.71014702	0	34.32
2.75	-17.97465883	-4.61406779	-3.9853284	-4.19845203	13.70600209	4.79659565	-19.92863472	14.62606991	46.59774264	0	34.32
2.76	-17.98315978	-4.63464852	-3.98657675	-4.21865315	13.72126002	4.80106465	-19.92354179	14.65594902	46.5988293	0	34.32
2.77	-17.8459867	-4.61755665	-3.79339699	-4.17917605	13.64724557	4.78921081	-18.65954593	15.25678987	41.10089495	0	34.32
2.78	-17.84254969	-4.59282052	-3.80929856	-4.15281036	13.61916123	4.7872294	-18.65249362	15.20693002	41.11457965	0	34.32
2.79	-18.16495039	-4.51144439	-4.36029328	-4.12194435	13.67560797	4.80650113	-18.66710716	14.87032282	41.35490956	0	34.32
2.8	-18.36163096	-4.6036594	-4.89890442	-4.10632962	13.30664383	4.96334242	-17.42773403	15.1341245	38.92281064	0	34.32
2.81	-18.36313753	-4.60543553	-4.90374596	-4.10666876	13.30235743	4.9650569	-17.42828905	15.13164826	38.93800509	0	34.32
2.82	-18.22770042	-4.75692993	-4.71087606	-4.17985515	13.16586477	5.02366467	-17.97925765	15.34912461	38.84876924	0	34.32
2.83	-18.16721208	-4.85413669	-4.63132347	-4.22927153	13.08221714	5.06503889	-18.21510605	15.35352199	39.40790528	0	34.32
2.84	-18.18192913	-4.83869853	-4.64843677	-4.22358506	13.10294316	5.05744334	-18.18424972	15.27581652	39.43452831	0	34.32
2.85	-18.46980682	-4.6372485	-5.00343041	-4.17253338	13.4395184	4.95886183	-18.87582239	14.19724784	48.0657665	0	34.32
2.86	-18.54889553	-4.69060651	-5.17722502	-4.19618772	13.35775414	5.00970901	-17.6231966	14.55909762	44.09358434	0	34.32
2.87	-18.48313601	-4.73281667	-5.12766154	-4.19108414	13.2280631	5.04457971	-17.14740805	14.86461925	41.51427091	0	34.32
